<?xml version="1.0" encoding="UTF-8"?>
<svg width="44px" height="44px" viewBox="0 0 44 44" version="1.1" xmlns="http://www.w3.org/2000/svg" xmlns:xlink="http://www.w3.org/1999/xlink">
    <!-- Generator: Sketch 59 (86127) - https://sketch.com -->
    <title>logo</title>
    <desc>Created with Sketch.</desc>
    <g id="Page-1" stroke="none" stroke-width="1" fill="none" fill-rule="evenodd">
        <g id="Desktop" transform="translate(-150.000000, -13.000000)">
            <g id="header">
                <g id="nav">
                    <g id="logo" transform="translate(150.000000, 13.000000)">
                        <circle id="Oval" fill="#ECF0F1" cx="22" cy="22" r="22"></circle>
                        <path d="M38.1865606,14.1710792 C36.4631055,12.4508062 33.7496089,12.3219716 31.8772816,13.7831141 C31.6686441,13.4624251 31.4255732,13.1627003 31.150742,12.8883866 C31.0520879,12.7893466 30.9490421,12.6940547 30.8485422,12.6077202 C30.797624,12.5632507 30.7422504,12.5181458 30.6742109,12.4635753 C30.5361588,12.353672 30.3930149,12.2514556 30.2460522,12.1562272 C31.710588,10.2873624 31.5814466,7.57840422 29.8579915,5.8581948 C28.0059679,4.00959543 25.0094295,3.99879568 23.1440398,5.82509675 C23.1382479,5.83024251 23.1325196,5.8358965 23.1268549,5.84097873 C23.1211266,5.84669625 23.1153983,5.85304904 23.110943,5.85946536 C22.8221093,6.16992638 22.829747,6.65635977 23.1325196,6.95799041 C23.4354195,7.26025632 23.9221342,7.26787967 24.2338175,6.97958991 C24.2338175,6.98022519 24.2338175,6.98022519 24.2345176,6.98086046 C25.4764134,5.7413034 27.4912482,5.7413034 28.733144,6.98086046 C29.9749762,8.22041753 29.9749762,10.2308225 28.7337168,11.4703796 C27.5866562,11.1458789 26.3606723,11.1967013 25.2371614,11.6215126 C24.9196861,11.7421521 24.6136675,11.8913792 24.3235609,12.0672881 C22.6000421,11.3954802 20.7391078,11.0786028 18.880783,11.1458789 C18.6771737,11.152867 18.4742645,11.1649373 18.2712917,11.1808193 C18.2693822,11.1814546 18.2681093,11.1814546 18.2661998,11.1814546 C18.1440597,11.191619 18.0212195,11.2036893 17.8990793,11.2170302 L17.7286305,11.2423779 L17.3080459,11.3039999 L17.2635561,11.3078116 L17.2622831,11.3078116 C14.4610162,11.7529519 11.8417183,13.0820198 9.82688362,15.0931236 C6.63882903,18.2758096 5.25315281,22.8148806 6.12029042,27.2364883 L6.24822249,27.8886026 L6.91302375,27.8778028 C8.31843079,27.8556316 9.7205918,27.69624 11.0903561,27.4015339 C11.5173055,28.6785725 12.2381168,29.8425313 13.201299,30.803963 C14.1785473,31.7799427 15.3644331,32.5051776 16.6655214,32.9293536 C16.3696864,34.2939972 16.2080846,35.6897694 16.183262,37.0880828 L16.1711689,37.7554438 L16.8283961,37.8811655 C17.6808947,38.0443688 18.5365757,38.1243505 19.3871649,38.1243505 C22.9404305,38.1243505 26.3854949,36.7280065 28.9462368,34.1714518 C30.9611352,32.160348 32.2939837,29.5453476 32.7386909,26.7494197 L32.8246154,26.1150297 C32.860831,25.7892585 32.8843807,25.4615814 32.8958373,25.1346031 C32.963304,23.280985 32.6458288,21.4222847 31.9726897,19.7020753 C32.5719973,18.7184723 32.851984,17.5627085 32.7660595,16.4024979 C32.7374816,16.0234267 32.6706514,15.6507083 32.5669055,15.2899967 C33.8088014,14.0542513 35.8211538,14.0555219 37.0617131,15.2938084 C38.3036726,16.5333019 38.3036726,18.5444057 37.0617131,19.7839628 C37.0624132,19.7845981 37.0624132,19.7845981 37.0630497,19.7845981 C36.7742159,20.0957579 36.7818537,20.581556 37.0846899,20.8838219 C37.3868897,21.1860243 37.8741772,21.1936477 38.1852876,20.9053579 C38.1916524,20.9009745 38.1980172,20.8951934 38.2037455,20.8894759 C38.2088373,20.8838219 38.2145656,20.8781044 38.2196575,20.8723869 C40.0494044,19.0105102 40.0385843,16.019615 38.1865606,14.1710792" id="Fill-1" fill="#2C3E50"></path>
                        <path d="M18.6645205,14.2402865 C18.6698669,14.3215387 18.6766772,14.4027274 18.6838058,14.4838526 C18.688643,14.539249 18.6941167,14.5945183 18.6997814,14.6498511 C18.7030274,14.6817421 18.7063371,14.7136967 18.7098377,14.7455877 C18.7174755,14.814579 18.725686,14.8835704 18.7345967,14.9524347 C18.7368244,14.9700319 18.7391157,14.9875656 18.741407,15.0050993 C18.7519726,15.0838739 18.7630473,15.1625851 18.7751404,15.2411691 C18.7760951,15.2473313 18.7771135,15.25343 18.7780682,15.2595922 C18.8468714,15.7024454 18.9406883,16.1423129 19.0597097,16.5781145 C19.3407784,17.6053612 19.7588808,18.5887736 20.3025603,19.5023053 C20.6046964,20.0105288 20.9501766,20.502235 21.3293902,20.9640831 C21.3612777,21.0028352 21.3931653,21.0409519 21.4250528,21.0790051 C21.4575132,21.1171854 21.4900372,21.1553022 21.5225613,21.193419 C21.5881821,21.2690172 21.6545031,21.3446154 21.7220335,21.4189431 C21.8571577,21.5675985 21.9961009,21.7137127 22.1382264,21.8546812 C22.4378166,22.1533261 22.7539552,22.4372324 23.0777316,22.6983957 C23.080914,22.7009368 23.0840964,22.703478 23.0872787,22.7060191 C23.2523811,22.8393642 23.4212387,22.9677542 23.5939789,23.0922689 C23.8865678,23.3038169 24.1893404,23.5013253 24.4977776,23.6836505 C25.4150697,24.226179 26.4016742,24.6429858 27.4316865,24.9224452 C27.829358,25.0305062 28.2303391,25.1181112 28.6338025,25.1842438 C28.8778918,25.2249017 29.1232541,25.2573009 29.3692528,25.2820768 C29.3826825,25.2839827 29.396685,25.2851897 29.4107512,25.2865238 C29.526081,25.2979588 29.6414745,25.307488 29.7568043,25.3151114 C29.7740528,25.3169537 29.7918742,25.3182878 29.8091228,25.318923 C30.2329535,25.3462401 30.6586936,25.3512588 31.0851338,25.3335345 C31.1412075,25.3309933 31.1972813,25.3284522 31.2534186,25.3252758 C31.2534186,25.3220359 31.2540551,25.3194948 31.2540551,25.3163819 L31.2540551,25.3144761 C31.256601,25.2642255 31.2591469,25.2134031 31.2610564,25.1632161 C31.2629658,25.1226217 31.2642387,25.0819638 31.2655117,25.041306 C31.2693306,24.9199041 31.27124,24.7979304 31.27124,24.6765921 C31.27124,24.6098878 31.2706672,24.5438187 31.2693306,24.4771779 C31.2686941,24.4111089 31.2667847,24.3444045 31.2642387,24.2777002 C31.2623293,24.2109959 31.2597834,24.1449268 31.2559645,24.0781589 C31.2527185,24.014631 31.2489633,23.9511031 31.2450808,23.8875751 C31.2444443,23.8824929 31.2444443,23.8767754 31.2438714,23.8716932 C31.2399889,23.8120404 31.2355972,23.7522606 31.2305054,23.6926079 C31.2279595,23.6583028 31.2247135,23.6233625 31.2208946,23.5883586 C31.2170757,23.5432537 31.2125567,23.4988477 31.208165,23.4536793 C31.2023731,23.3959325 31.1960719,23.338122 31.189007,23.2803116 C31.1827059,23.2218659 31.1750045,23.1640555 31.1673031,23.1062451 C31.1629114,23.0700341 31.1578196,23.0338232 31.1520277,22.9976123 C31.1462994,22.9544133 31.1399346,22.9112143 31.1329333,22.86738 C31.1259321,22.8203694 31.1189308,22.773994 31.1106566,22.7276186 C31.1042282,22.6869607 31.0972269,22.6463028 31.0902893,22.6056449 C31.0883162,22.5954805 31.0864068,22.5852525 31.0844974,22.5744527 C31.0781326,22.5363995 31.0711313,22.4982827 31.0634936,22.460166 C31.0545192,22.4112495 31.0449721,22.362333 31.0354249,22.3134164 C31.0335155,22.3057931 31.0321789,22.2981697 31.0303331,22.2905464 C31.0055104,22.1685728 30.9792875,22.0465991 30.950646,21.9258325 C30.9481001,21.9163669 30.9461907,21.9062024 30.9436448,21.8960379 C30.9289421,21.8356864 30.9143031,21.7759701 30.8990277,21.7156186 C30.8824792,21.6514554 30.8658672,21.5872286 30.8480458,21.5231289 C30.8321338,21.4646832 30.8155218,21.4056023 30.7989097,21.3471566 C30.7951545,21.3338157 30.7906991,21.319776 30.7868166,21.3058634 C30.7728141,21.2575822 30.7581751,21.2086021 30.7428996,21.1603844 C30.7390171,21.1470436 30.7351982,21.1330674 30.7307429,21.1197266 C30.7129215,21.0631232 30.6951001,21.0066468 30.6765786,20.9507422 C30.6561477,20.8878496 30.6351439,20.8248934 30.61344,20.7620643 C30.5701595,20.636279 30.5242694,20.5117642 30.4771064,20.3878847 C30.4528566,20.3256274 30.4286068,20.2640053 30.4037842,20.2023832 C30.3788979,20.1407611 30.3540752,20.0797743 30.327916,20.0181522 C30.3024569,19.9571653 30.2756611,19.896115 30.2489291,19.8351917 C30.1424463,19.5950561 30.0276893,19.3580969 29.9059947,19.1249494 C29.9040853,19.12298 29.9027487,19.1205024 29.9021758,19.1178978 C29.8396737,19.0004347 29.7759623,18.8841785 29.7103414,18.7684942 C29.6771172,18.7107473 29.6433839,18.6535721 29.6095869,18.596397 C29.5783995,18.5436688 29.5465119,18.4909406 29.5146244,18.4388477 C29.4828005,18.3873266 29.450913,18.3365042 29.4183889,18.2857454 C29.417116,18.2832043 29.415843,18.2812349 29.4139336,18.2793926 C29.383319,18.2304761 29.3521316,18.1828301 29.3208805,18.1345489 C29.3176981,18.1307372 29.3151522,18.1269255 29.3126063,18.1224151 C29.3017225,18.1059613 29.2909024,18.0900793 29.2800823,18.0735621 C29.2711079,18.0595859 29.2615608,18.0462451 29.2526501,18.0329042 C29.2456488,18.0220409 29.2380111,18.0112412 29.2310098,18.0004414 C29.2233721,17.9897052 29.2163072,17.9789055 29.2086694,17.9681057 C29.1819374,17.9287184 29.1545052,17.8892675 29.1271366,17.850579 C29.1258,17.8486732 29.1245907,17.8461321 29.1226176,17.8441627 C29.1200717,17.8404146 29.1175258,17.8359676 29.114407,17.8321559 C29.1118611,17.8282807 29.1093152,17.8245326 29.1067057,17.8206574 C29.1054327,17.8188151 29.1040961,17.8169092 29.1028868,17.8150034 C29.0984314,17.8086506 29.0939125,17.8029331 29.0895208,17.7972156 C29.0799736,17.7832394 29.0697263,17.7692633 29.0595426,17.7546519 C29.043567,17.7324171 29.0276551,17.7101823 29.0117431,17.6885193 L28.9881298,17.6561836 C28.9543965,17.6098082 28.919963,17.5634328 28.8848931,17.5170574 C28.8696176,17.4973637 28.8543421,17.4770348 28.839003,17.4567058 C28.8185721,17.4293888 28.7975683,17.4020718 28.7765645,17.3753901 C28.7714727,17.368402 28.7656808,17.3607787 28.7599525,17.3537906 C28.7236732,17.3080505 28.6879031,17.2623104 28.6509874,17.217142 C28.6497145,17.2152997 28.6484415,17.2140291 28.6471686,17.2120598 C28.6095527,17.1651126 28.5713004,17.1187372 28.5324116,17.0723618 C28.4820662,17.0120103 28.4310843,16.9516588 28.3800387,16.8925778 C28.3654634,16.8760605 28.3508244,16.858908 28.3354853,16.8423907 C28.3348488,16.8417554 28.3342123,16.8410566 28.3335758,16.8404849 C28.3329394,16.8398496 28.3323029,16.8392143 28.3316664,16.8385155 C28.3061436,16.8080856 28.2793479,16.7775287 28.2513429,16.7470988 C28.2513429,16.7464635 28.2507064,16.7457647 28.2501336,16.745193 C28.2213648,16.7127937 28.1914503,16.6796957 28.1621087,16.6473599 C28.1201011,16.6016198 28.0773935,16.5551809 28.0339857,16.5095043 C27.9479338,16.4186594 27.8606091,16.3284497 27.7713748,16.2395106 C27.7300038,16.1982175 27.6878689,16.1569243 27.6464979,16.1162664 C27.6438883,16.1143606 27.6420425,16.1124547 27.6394966,16.1099136 C27.6362506,16.1067372 27.6330682,16.1035608 27.6298858,16.1003844 C27.6216116,16.0927611 27.6139738,16.0851377 27.6056996,16.0775144 C27.5840594,16.0571854 27.5629919,16.0362212 27.5413517,16.0158923 C27.5285585,16.003822 27.5157653,15.9923869 27.5030357,15.9803166 C27.5011899,15.9784108 27.4985804,15.976505 27.4967346,15.9739638 C27.4916428,15.9695169 27.4864873,15.9650699 27.4820319,15.9599877 C27.4743942,15.9536349 27.4667565,15.9466468 27.4597552,15.940294 C27.451481,15.9320354 27.4431431,15.9244121 27.4342325,15.9161534 C27.3877696,15.8723827 27.3413067,15.8312801 27.2949074,15.7874458 C27.2844692,15.7776625 27.2735218,15.7685145 27.2623197,15.7596206 C27.2429072,15.7439927 27.2235582,15.7265225 27.2041457,15.7090524 C27.1212762,15.6366305 27.0371338,15.5648439 26.9517185,15.4943279 C26.920913,15.4679638 26.8867341,15.4416633 26.8568833,15.4152992 C26.8407804,15.4010689 26.8241047,15.3878551 26.8069197,15.375086 C26.7725499,15.3496748 26.7381165,15.3194355 26.7038103,15.2987254 C26.7023464,15.2975184 26.6999278,15.2957396 26.6984003,15.2947867 C26.6207499,15.2284635 26.5411265,15.1673497 26.459721,15.1080781 C26.4482008,15.0991842 26.4367442,15.0902903 26.4246511,15.0813964 C26.4099484,15.0705966 26.3959459,15.0604321 26.3812433,15.0496324 C26.375515,15.0451854 26.3698503,15.0407385 26.3634219,15.0362915 C26.3590302,15.0337504 26.3551477,15.030574 26.3506923,15.0273976 C26.3385356,15.0185037 26.3265062,15.0102451 26.3143494,15.0013512 C26.2837348,14.9791164 26.2531839,14.9575169 26.2225693,14.9352821 C26.216841,14.9314704 26.2110491,14.9270235 26.2053844,14.9232118 C26.1607036,14.8920831 26.1167867,14.8609544 26.0721696,14.8310963 C26.0651047,14.8260141 26.0581034,14.8215671 26.0511658,14.8164849 C26.0306712,14.8025087 26.0103039,14.7885326 25.9893001,14.775827 C25.9535937,14.7510511 25.9172508,14.7269105 25.8809716,14.7034051 C25.8502933,14.6830762 25.8191059,14.6627473 25.7878548,14.6430536 C25.7298717,14.6055721 25.6712521,14.5680906 25.6125688,14.5318797 C25.5998392,14.5242564 25.5871097,14.516633 25.5743165,14.5083744 C25.5380372,14.4861396 25.5010579,14.4639048 25.4640785,14.4416701 C25.4608961,14.4403995 25.4583502,14.4384937 25.4551042,14.4365878 C25.4526219,14.434682 25.4494395,14.4334114 25.4468936,14.4315056 C25.4092777,14.4092708 25.3710254,14.387036 25.3328367,14.3648013 C25.3155882,14.3546368 25.2984033,14.3444723 25.2811547,14.3349431 C25.2754264,14.3311315 25.2696345,14.3279551 25.2639698,14.3247787 C25.2288999,14.305085 25.1938299,14.2847561 25.1581235,14.2656977 C25.072199,14.2172894 24.9850652,14.1701517 24.8978677,14.1241574 C24.8944943,14.1224422 24.8912483,14.1206634 24.887875,14.1189481 L24.8840561,14.1170423 C24.8783278,14.1138659 24.873236,14.1113248 24.8675077,14.1087837 C24.8197082,14.0833725 24.7712086,14.0585966 24.7228362,14.034456 C24.5341842,13.9391641 24.3436226,13.8495897 24.1498151,13.7650976 C24.1071074,13.7460392 24.0650362,13.7276161 24.0223286,13.7098282 C23.9777751,13.6907699 23.9330943,13.6717115 23.8878408,13.6532884 C23.8374953,13.6323242 23.7871499,13.6119952 23.7361681,13.5929368 C23.7329857,13.591031 23.7298033,13.5897605 23.7265572,13.5884899 C23.6877321,13.5732432 23.6488433,13.5579965 23.6099545,13.5433851 C23.562155,13.524962 23.5143555,13.5071741 23.4664923,13.4900216 C23.460764,13.4874805 23.4550994,13.4855746 23.4493711,13.4836688 C23.4104186,13.4690574 23.3708933,13.4550812 23.3314317,13.4417404 C23.2963618,13.4283995 23.2600189,13.4163292 23.2243761,13.4042589 C22.9681301,13.3159551 22.7087016,13.2371804 22.4474274,13.1666644 C22.4027467,13.1545941 22.3581296,13.1431591 22.312876,13.131724 C22.3026923,13.1285476 22.2925087,13.1260065 22.282325,13.1234654 C22.2319796,13.1107598 22.1809341,13.0980542 22.1299522,13.0859839 C22.0789703,13.0732783 22.0273519,13.061208 21.9756699,13.0504083 C21.9381177,13.0415144 21.8998654,13.0332557 21.8616131,13.0249971 C21.836154,13.0192796 21.8106312,13.0135621 21.7845356,13.0084798 C21.7443738,13.0002212 21.7042121,12.9919626 21.6634138,12.983704 C21.6143414,12.9735395 21.5645688,12.9640103 21.5149235,12.9551164 C21.4486025,12.9430461 21.3823452,12.9309758 21.3160242,12.9195407 C21.1707162,12.8954001 21.0247718,12.8731653 20.8781273,12.854107 C20.8245995,12.8471189 20.7710717,12.8401308 20.7169074,12.8344133 C20.6512229,12.8261547 20.5849655,12.8191666 20.5186445,12.8121785 C20.4415034,12.8045552 20.3644259,12.7975671 20.2872848,12.7918496 C20.2382123,12.7874026 20.1891399,12.783591 20.1394309,12.7804146 C20.0597439,12.774697 19.9800569,12.7696148 19.9003698,12.7658031 C19.8430231,12.763262 19.786313,12.7607209 19.7289663,12.7588151 C19.655644,12.7562739 19.5817489,12.7543681 19.5077902,12.7530976 C19.4408327,12.751827 19.3739389,12.7511917 19.3069814,12.7511917 C19.0902606,12.7511917 18.872967,12.7569092 18.6562463,12.7689795 L18.6556098,12.7689795 C18.6556098,12.7740618 18.6549733,12.7797793 18.6549733,12.7848615 C18.6486086,12.8947648 18.6441532,13.0046682 18.6416073,13.1139362 C18.6383613,13.2238395 18.6370883,13.3337429 18.6370883,13.4436462 C18.6370883,13.5097153 18.6377884,13.575149 18.6390614,13.6412181 C18.6396342,13.688864 18.6409072,13.73651 18.6421801,13.7841559 C18.6421801,13.8006732 18.6428803,13.8178257 18.6434531,13.834343 C18.6434531,13.8413311 18.6441532,13.8489544 18.6441532,13.8559425 C18.6466991,13.9150235 18.649245,13.9734692 18.6517909,14.0325502 L18.6517909,14.0376324 C18.6556098,14.1056073 18.6600652,14.1729469 18.6645205,14.2402865" id="Fill-4" fill="#2C3E50"></path>
                        <path d="M10.8925005,16.2165961 C8.23736896,18.8667909 6.99846455,22.5836833 7.50949273,26.2733223 C8.8202555,26.2077614 10.1233169,26.0131118 11.3918175,25.692804 C12.3890512,25.4420592 13.3715823,25.1115869 14.3128696,24.7103445 C14.811741,24.4983518 15.3045659,24.2643149 15.7783602,24.014396 C17.1633363,23.2861752 18.4616877,22.3911937 19.6433727,21.3507967 C19.3921549,21.00692 19.1576127,20.6517988 18.9423559,20.2893084 C18.3264361,19.2534219 17.8528965,18.1374902 17.535103,16.9728326 C17.1744746,15.6539292 17.0170736,14.3021182 17.0647458,12.9419852 C14.7220613,13.3877607 12.6038625,14.508457 10.8925005,16.2165961" id="Fill-6" fill="#F55240"></path>
                        <path d="M23.6889668,25.027063 C23.3435502,24.8228207 23.0050712,24.6013623 22.6772214,24.365229 C21.6428174,25.5350959 20.7524484,26.8181696 20.024954,28.1873236 C19.7677533,28.6708348 19.5304743,29.1655903 19.3196091,29.6578683 C18.9148728,30.6001146 18.5815492,31.5819388 18.3285492,32.5767863 C18.0063641,33.8415639 17.8093741,35.1398843 17.7409528,36.4453834 C21.4222141,36.9375343 25.1281072,35.6984855 27.7696182,33.0620127 C29.4810438,31.35381 30.6039183,29.2396004 31.0504712,26.9013277 C29.687199,26.9485924 28.3333467,26.7918055 27.0115729,26.4317927 C25.8450997,26.1146612 24.7270624,25.6420134 23.6889668,25.027063" id="Fill-8" fill="#F55240"></path>
                        <path d="M16.5208881,25.4190875 C16.0089052,25.6891448 15.4757276,25.9423671 14.936949,26.1713218 C14.1715206,26.4976013 13.3805694,26.7806182 12.576825,27.0161798 C12.9303248,28.018333 13.5064647,28.9329447 14.267947,29.6928658 C15.0431135,30.4666361 15.9776541,31.0481708 17.002511,31.3993532 C17.2406174,30.5941366 17.5268416,29.8010539 17.8567917,29.032747 C18.0848418,28.5004465 18.3414697,27.9652872 18.619356,27.4428334 C19.3963684,25.9806109 20.3451661,24.6092334 21.4432179,23.3607189 C21.298992,23.2285808 21.157312,23.0930122 21.0188144,22.9547754 C20.8955923,22.8317853 20.7742159,22.705873 20.6551945,22.5776736 C19.389749,23.6862361 18.000954,24.6408703 16.5208881,25.4190875" id="Fill-10" fill="#CF4536"></path>
                        <path d="M17.1114951,14.6195292 C11.6486046,15.6861632 7.52359072,20.4971973 7.51340707,26.2730936 L7.5095882,26.2730936 C6.99849638,22.5833911 8.23708254,18.8670069 10.8924687,16.2166215 C12.603958,14.5083553 14.7221568,13.3877226 17.0650322,12.9417565 C17.0643957,12.9550973 17.0643957,12.9678029 17.0637593,12.9811438 C17.0624863,13.0262486 17.0612134,13.0707182 17.0605769,13.115823 C17.0593039,13.147587 17.0586674,13.1799862 17.0586674,13.2117502 C17.0510297,13.6824922 17.0682146,14.1519636 17.1114951,14.6195292" id="Fill-12" fill="#FFFFFF" opacity="0.5"></path>
                        <path d="M31.247022,25.2935246 C30.7385397,19.1923017 25.6294673,14.399119 19.4008937,14.399119 C19.1622145,14.399119 18.9254447,14.4061071 18.6905843,14.4200833 C18.6791913,14.2847052 18.670217,14.1500895 18.6625792,14.0147115 C18.6473674,13.7078716 18.6434849,13.3998246 18.6523956,13.0910153 C18.655578,12.981112 18.6600333,12.8719075 18.6657616,12.7620042 C18.6663981,12.7562231 18.6663981,12.7511409 18.6670982,12.7461222 C20.8202396,12.6285955 22.9861742,13.0980669 24.8861247,14.0941214 L24.8937624,14.0979966 C25.0108743,14.1596187 25.1267133,14.2231467 25.2418522,14.2885804 C25.2495536,14.2930274 25.2577642,14.2974744 25.2654655,14.3019213 C25.2711302,14.3050977 25.2768585,14.3082741 25.2825868,14.3120858 C25.2998353,14.321615 25.3169566,14.3317794 25.3342052,14.3418804 C25.3723302,14.3641152 25.4105189,14.3864135 25.4481347,14.4086482 C25.4506806,14.4104905 25.4537994,14.4117611 25.4564089,14.4137305 C25.4595277,14.4156363 25.4620736,14.4175421 25.465256,14.4187492 C25.5021717,14.440984 25.5390874,14.4632823 25.5754303,14.485517 C25.5881599,14.4937757 25.6008258,14.501399 25.6135553,14.5090224 C25.7618547,14.6010744 25.9076082,14.6957945 26.0514522,14.7936275 C26.0539981,14.7955334 26.0559075,14.7968039 26.0584535,14.7980745 C26.1565347,14.8654141 26.2545523,14.934596 26.3505969,15.0045403 C26.3754195,15.0222646 26.4003058,15.0406877 26.4244283,15.058539 C26.5415403,15.1455723 26.6574429,15.2345114 26.7713725,15.3253563 C26.8177717,15.362139 26.8635981,15.399684 26.9094882,15.4371655 C26.923427,15.4486005 26.9374296,15.459972 26.9507956,15.4714706 C27.0361473,15.5419866 27.1200987,15.6137096 27.2028409,15.686195 C27.2162706,15.6982018 27.229573,15.7102721 27.2430026,15.7217706 C27.2831008,15.757918 27.3237717,15.7934937 27.3638698,15.8297681 C27.4096962,15.871633 27.4561591,15.9148956 27.5013491,15.9574593 C27.5471755,15.9999595 27.5930655,16.043222 27.6375553,16.0870563 C27.6401013,16.0895974 27.6420107,16.0914397 27.6445566,16.0934091 C27.6859277,16.1340034 27.7279352,16.1753601 27.7693063,16.2165897 C27.8584769,16.3055924 27.9456107,16.3957385 28.0315352,16.4865835 C28.0748157,16.5323871 28.1174597,16.578699 28.1594673,16.6245026 C28.1887453,16.6569018 28.2187234,16.6898728 28.2473013,16.7223356 C28.2479377,16.7229709 28.2486379,16.7236062 28.2486379,16.7241779 L28.2708509,16.7591183 L28.3287704,16.8157217 C28.3294069,16.816357 28.330107,16.8169287 28.3307435,16.8176275 C28.3466555,16.8347801 28.3619309,16.8525679 28.3771428,16.8696569 C28.428061,16.9288014 28.4790429,16.9890894 28.529261,17.0495045 C28.5680862,17.0958799 28.6063385,17.1421917 28.6438907,17.1892659 C28.6648945,17.2153124 28.6858982,17.2419941 28.706902,17.2680406 C28.7234504,17.2890048 28.7399352,17.309969 28.7564836,17.3308697 C28.7622119,17.3379213 28.7679403,17.3455447 28.7730321,17.3525327 C28.8099478,17.3994799 28.8456542,17.4471258 28.8812333,17.4942 C28.9162396,17.5405754 28.9506731,17.5868873 28.9843428,17.6333262 L29.0078925,17.6657254 C29.0238044,17.6873249 29.0397164,17.7094962 29.0556283,17.7317945 C29.0658119,17.7463424 29.0760592,17.7603821 29.0855428,17.7743582 C29.0899981,17.7800757 29.0945171,17.7857297 29.0989088,17.792146 C29.107183,17.8041528 29.1155209,17.8156514 29.123095,17.8277217 C29.1505272,17.8664737 29.1778321,17.905861 29.2045642,17.9452484 C29.2223855,17.9706595 29.2395704,17.9960707 29.2567553,18.0221172 C29.2638203,18.0315828 29.2701214,18.0411755 29.2758497,18.0506412 C29.2866698,18.067222 29.2974899,18.083104 29.3083101,18.0996212 C29.310856,18.1040682 29.3134019,18.1078799 29.3166479,18.111628 C29.3491083,18.1618151 29.381505,18.2120022 29.4139654,18.262888 C29.4464258,18.3137104 29.4782497,18.3645327 29.5100736,18.4159268 C29.5418975,18.4680833 29.5737214,18.5208115 29.6049088,18.5735396 C29.6386421,18.6306512 29.6724391,18.6878899 29.7054723,18.7457003 C29.7710932,18.8613212 29.834741,18.9775773 29.8970522,19.095104 C29.8976887,19.0976451 29.8989616,19.1001862 29.9009347,19.1020921 C29.9288761,19.1554555 29.9568811,19.2094543 29.9842497,19.263453 C30.9192995,21.1158641 31.3597423,23.2122859 31.247022,25.2935246" id="Fill-14" fill="#FFFFFF" opacity="0.5"></path>
                    </g>
                </g>
            </g>
        </g>
    </g>
</svg>